<svg width="275" height="143" viewBox="0 0 275 143" fill="none" xmlns="http://www.w3.org/2000/svg">
<path d="M7.59943 93V84.2386L42.4403 35.3523H7.53125V23.1818H60.9858V31.9432L26.1108 80.8295H61.054V93H7.59943ZM84.4148 93H68.5966L92.6989 23.1818H111.722L135.79 93H119.972L102.483 39.1364H101.938L84.4148 93ZM83.4261 65.5568H120.79V77.0795H83.4261V65.5568ZM187.207 45.75C186.73 44.0909 186.06 42.625 185.196 41.3523C184.332 40.0568 183.276 38.9659 182.026 38.0795C180.798 37.1705 179.389 36.4773 177.798 36C176.23 35.5227 174.491 35.2841 172.582 35.2841C169.014 35.2841 165.878 36.1705 163.173 37.9432C160.491 39.7159 158.401 42.2955 156.901 45.6818C155.401 49.0455 154.651 53.1591 154.651 58.0227C154.651 62.8864 155.389 67.0227 156.866 70.4318C158.344 73.8409 160.435 76.4432 163.139 78.2386C165.844 80.0114 169.037 80.8977 172.719 80.8977C176.06 80.8977 178.912 80.3068 181.276 79.125C183.662 77.9205 185.48 76.2273 186.73 74.0455C188.003 71.8636 188.639 69.2841 188.639 66.3068L191.639 66.75H173.639V55.6364H202.855V64.4318C202.855 70.5682 201.56 75.8409 198.969 80.25C196.378 84.6364 192.81 88.0227 188.264 90.4091C183.719 92.7727 178.514 93.9545 172.651 93.9545C166.105 93.9545 160.355 92.5114 155.401 89.625C150.446 86.7159 146.582 82.5909 143.81 77.25C141.06 71.8864 139.685 65.5227 139.685 58.1591C139.685 52.5 140.503 47.4545 142.139 43.0227C143.798 38.5682 146.116 34.7955 149.094 31.7045C152.071 28.6136 155.537 26.2614 159.491 24.6477C163.446 23.0341 167.73 22.2273 172.344 22.2273C176.298 22.2273 179.98 22.8068 183.389 23.9659C186.798 25.1023 189.821 26.7159 192.457 28.8068C195.116 30.8977 197.287 33.3864 198.969 36.2727C200.651 39.1364 201.73 42.2955 202.207 45.75H187.207ZM226.284 23.1818L240.364 46.9773H240.909L255.057 23.1818H271.727L250.42 58.0909L272.205 93H255.227L240.909 69.1705H240.364L226.045 93H209.136L230.989 58.0909L209.545 23.1818H226.284Z" fill="white"/>
<path d="M4.24858 133V103.182H14.8771C17.197 103.182 19.1188 103.604 20.6428 104.449C22.1667 105.293 23.3072 106.448 24.0643 107.914C24.8214 109.37 25.1999 111.01 25.1999 112.835C25.1999 114.669 24.8165 116.319 24.0497 117.785C23.2926 119.241 22.1473 120.396 20.6136 121.25C19.0897 122.095 17.1727 122.517 14.8626 122.517H7.55362V118.702H14.4549C15.9206 118.702 17.1096 118.45 18.022 117.945C18.9344 117.431 19.6042 116.732 20.0312 115.849C20.4583 114.965 20.6719 113.961 20.6719 112.835C20.6719 111.709 20.4583 110.709 20.0312 109.836C19.6042 108.962 18.9296 108.278 18.0075 107.783C17.0951 107.288 15.8915 107.04 14.3967 107.04H8.74751V133H4.24858ZM30.4742 133V103.182H41.1027C43.4128 103.182 45.3299 103.58 46.8538 104.376C48.3874 105.172 49.5328 106.273 50.2899 107.681C51.047 109.078 51.4255 110.695 51.4255 112.529C51.4255 114.354 51.0421 115.96 50.2753 117.348C49.5182 118.727 48.3728 119.799 46.8392 120.566C45.3153 121.333 43.3983 121.716 41.0882 121.716H33.0367V117.843H40.6805C42.1365 117.843 43.3206 117.635 44.233 117.217C45.1552 116.8 45.8298 116.193 46.2568 115.397C46.6839 114.601 46.8975 113.645 46.8975 112.529C46.8975 111.403 46.6791 110.428 46.2423 109.603C45.8152 108.778 45.1406 108.147 44.2185 107.71C43.3061 107.263 42.1073 107.04 40.6222 107.04H34.9731V133H30.4742ZM45.194 119.547L52.5612 133H47.4362L40.2146 119.547H45.194ZM82.8016 118.091C82.8016 121.275 82.2192 124.012 81.0544 126.303C79.8897 128.584 78.2929 130.34 76.2643 131.573C74.2454 132.796 71.9498 133.408 69.3776 133.408C66.7957 133.408 64.4904 132.796 62.4617 131.573C60.4428 130.34 58.8509 128.579 57.6862 126.288C56.5214 123.997 55.939 121.265 55.939 118.091C55.939 114.907 56.5214 112.175 57.6862 109.894C58.8509 107.603 60.4428 105.846 62.4617 104.623C64.4904 103.391 66.7957 102.774 69.3776 102.774C71.9498 102.774 74.2454 103.391 76.2643 104.623C78.2929 105.846 79.8897 107.603 81.0544 109.894C82.2192 112.175 82.8016 114.907 82.8016 118.091ZM78.3463 118.091C78.3463 115.664 77.9532 113.621 77.167 111.961C76.3905 110.292 75.3228 109.03 73.9639 108.176C72.6147 107.312 71.0859 106.88 69.3776 106.88C67.6595 106.88 66.1259 107.312 64.7767 108.176C63.4275 109.03 62.3598 110.292 61.5736 111.961C60.7971 113.621 60.4088 115.664 60.4088 118.091C60.4088 120.518 60.7971 122.566 61.5736 124.235C62.3598 125.895 63.4275 127.157 64.7767 128.021C66.1259 128.875 67.6595 129.302 69.3776 129.302C71.0859 129.302 72.6147 128.875 73.9639 128.021C75.3228 127.157 76.3905 125.895 77.167 124.235C77.9532 122.566 78.3463 120.518 78.3463 118.091ZM98.0637 133H88.4107V103.182H98.3695C101.291 103.182 103.8 103.779 105.897 104.973C107.993 106.157 109.6 107.86 110.716 110.083C111.842 112.296 112.405 114.951 112.405 118.047C112.405 121.153 111.837 123.823 110.702 126.055C109.576 128.288 107.945 130.006 105.809 131.209C103.674 132.403 101.092 133 98.0637 133ZM92.9096 129.069H97.8162C100.088 129.069 101.975 128.642 103.48 127.788C104.984 126.924 106.11 125.676 106.858 124.046C107.605 122.405 107.979 120.406 107.979 118.047C107.979 115.708 107.605 113.723 106.858 112.092C106.12 110.462 105.018 109.224 103.553 108.38C102.087 107.535 100.267 107.113 98.0929 107.113H92.9096V129.069ZM137.175 103.182H141.688V122.794C141.688 124.881 141.198 126.73 140.218 128.341C139.237 129.942 137.859 131.204 136.083 132.126C134.306 133.039 132.224 133.495 129.837 133.495C127.458 133.495 125.381 133.039 123.605 132.126C121.829 131.204 120.45 129.942 119.47 128.341C118.49 126.73 118 124.881 118 122.794V103.182H122.498V122.43C122.498 123.779 122.795 124.978 123.387 126.026C123.988 127.074 124.838 127.899 125.935 128.501C127.031 129.093 128.332 129.389 129.837 129.389C131.351 129.389 132.656 129.093 133.753 128.501C134.86 127.899 135.704 127.074 136.286 126.026C136.879 124.978 137.175 123.779 137.175 122.43V103.182ZM172.995 112.879H168.452C168.278 111.908 167.953 111.054 167.477 110.316C167.001 109.578 166.419 108.952 165.73 108.438C165.041 107.923 164.269 107.535 163.415 107.273C162.57 107.011 161.672 106.88 160.721 106.88C159.003 106.88 157.465 107.312 156.106 108.176C154.757 109.04 153.689 110.306 152.903 111.976C152.126 113.645 151.738 115.684 151.738 118.091C151.738 120.518 152.126 122.566 152.903 124.235C153.689 125.905 154.761 127.166 156.12 128.021C157.479 128.875 159.008 129.302 160.707 129.302C161.648 129.302 162.541 129.176 163.386 128.923C164.24 128.661 165.011 128.278 165.701 127.773C166.39 127.268 166.972 126.652 167.448 125.924C167.933 125.186 168.268 124.342 168.452 123.391L172.995 123.405C172.752 124.871 172.282 126.22 171.583 127.453C170.894 128.676 170.005 129.734 168.918 130.627C167.841 131.51 166.608 132.194 165.22 132.68C163.832 133.165 162.318 133.408 160.678 133.408C158.096 133.408 155.795 132.796 153.776 131.573C151.757 130.34 150.165 128.579 149.001 126.288C147.846 123.997 147.268 121.265 147.268 118.091C147.268 114.907 147.85 112.175 149.015 109.894C150.18 107.603 151.772 105.846 153.791 104.623C155.81 103.391 158.105 102.774 160.678 102.774C162.26 102.774 163.735 103.002 165.104 103.458C166.482 103.905 167.72 104.565 168.816 105.439C169.913 106.302 170.821 107.36 171.539 108.613C172.257 109.855 172.743 111.277 172.995 112.879ZM176.908 107.055V103.182H199.985V107.055H190.681V133H186.197V107.055H176.908ZM209.583 103.182V133H205.085V103.182H209.583ZM242.037 118.091C242.037 121.275 241.455 124.012 240.29 126.303C239.125 128.584 237.528 130.34 235.5 131.573C233.481 132.796 231.185 133.408 228.613 133.408C226.031 133.408 223.726 132.796 221.697 131.573C219.678 130.34 218.086 128.579 216.922 126.288C215.757 123.997 215.174 121.265 215.174 118.091C215.174 114.907 215.757 112.175 216.922 109.894C218.086 107.603 219.678 105.846 221.697 104.623C223.726 103.391 226.031 102.774 228.613 102.774C231.185 102.774 233.481 103.391 235.5 104.623C237.528 105.846 239.125 107.603 240.29 109.894C241.455 112.175 242.037 114.907 242.037 118.091ZM237.582 118.091C237.582 115.664 237.189 113.621 236.402 111.961C235.626 110.292 234.558 109.03 233.199 108.176C231.85 107.312 230.321 106.88 228.613 106.88C226.895 106.88 225.361 107.312 224.012 108.176C222.663 109.03 221.595 110.292 220.809 111.961C220.032 113.621 219.644 115.664 219.644 118.091C219.644 120.518 220.032 122.566 220.809 124.235C221.595 125.895 222.663 127.157 224.012 128.021C225.361 128.875 226.895 129.302 228.613 129.302C230.321 129.302 231.85 128.875 233.199 128.021C234.558 127.157 235.626 125.895 236.402 124.235C237.189 122.566 237.582 120.518 237.582 118.091ZM271.713 103.182V133H267.578L252.422 111.131H252.145V133H247.646V103.182H251.81L266.981 125.08H267.258V103.182H271.713Z" fill="white"/>
</svg>
